<svg width="1921" height="600" viewBox="0 0 1921 600" fill="none" xmlns="http://www.w3.org/2000/svg">
<path fill-rule="evenodd" clip-rule="evenodd" d="M1920.01 211.812H1620.36L1452 380.172H1378.83L1370.96 388.188H1519.17L1687.53 219.828H1920.01V211.812ZM1666.25 219.828H1676.2L1515.85 380.172H1505.9L1666.25 219.828ZM1654.91 219.828L1494.57 380.172H1484.62L1644.96 219.828H1654.91ZM1633.63 219.828L1473.28 380.172H1463.33L1623.68 219.828H1633.63Z" fill="#E5E5E5"/>
<path fill-rule="evenodd" clip-rule="evenodd" d="M1920.01 211.812H1620.36L1452 380.172H1378.83L1370.96 388.188H1519.17L1687.53 219.828H1920.01V211.812ZM1666.25 219.828H1676.2L1515.85 380.172H1505.9L1666.25 219.828ZM1654.91 219.828L1494.57 380.172H1484.62L1644.96 219.828H1654.91ZM1633.63 219.828L1473.28 380.172H1463.33L1623.68 219.828H1633.63Z" fill="url(#paint0_linear_31_1447)" fill-opacity="0.2"/>
<path fill-rule="evenodd" clip-rule="evenodd" d="M0.0117188 388.188L299.668 388.188L468.028 219.828L541.194 219.828L549.06 211.812L400.851 211.812L232.491 380.172L0.011718 380.172L0.0117188 388.188ZM253.777 380.172L243.827 380.172L404.171 219.828L414.12 219.828L253.777 380.172ZM265.113 380.172L425.456 219.828L435.406 219.828L275.062 380.172L265.113 380.172ZM286.398 380.172L446.742 219.828L456.692 219.828L296.348 380.172L286.398 380.172Z" fill="#E5E5E5"/>
<path fill-rule="evenodd" clip-rule="evenodd" d="M0.0117188 388.188L299.668 388.188L468.028 219.828L541.194 219.828L549.06 211.812L400.851 211.812L232.491 380.172L0.011718 380.172L0.0117188 388.188ZM253.777 380.172L243.827 380.172L404.171 219.828L414.12 219.828L253.777 380.172ZM265.113 380.172L425.456 219.828L435.406 219.828L275.062 380.172L265.113 380.172ZM286.398 380.172L446.742 219.828L456.692 219.828L296.348 380.172L286.398 380.172Z" fill="url(#paint1_linear_31_1447)" fill-opacity="0.2"/>
<defs>
<linearGradient id="paint0_linear_31_1447" x1="1645.49" y1="211.812" x2="1645.49" y2="388.188" gradientUnits="userSpaceOnUse">
<stop/>
<stop offset="1" stop-opacity="0"/>
</linearGradient>
<linearGradient id="paint1_linear_31_1447" x1="274.536" y1="388.188" x2="274.536" y2="211.812" gradientUnits="userSpaceOnUse">
<stop/>
<stop offset="1" stop-opacity="0"/>
</linearGradient>
</defs>
</svg>
