<svg width="200" height="70" viewBox="0 0 200 70" fill="none" xmlns="http://www.w3.org/2000/svg">
<path d="M99.9056 32.2521V30.4519L92.53 24.9545L85.1543 30.4519V39.4397L88.8422 42.1884L97.2881 48.3452L92.53 51.8916L79.2538 41.9964V27.8953L92.53 18L105.806 27.8953V37.6395H97.9269L105.046 42.5629L100.261 46.1295L91.8037 40.1632L88.1046 37.6051V32.2521H99.9056Z" fill="#5B5B5B"/>
<path d="M99.9056 32.2521V30.4519L92.53 24.9545L85.1543 30.4519V39.4397L88.8422 42.1884L97.2881 48.3452L92.53 51.8916L79.2538 41.9964V27.8953L92.53 18L105.806 27.8953V37.6395H97.9269L105.046 42.5629L100.261 46.1295L91.8037 40.1632L88.1046 37.6051V32.2521H99.9056Z" fill="white"/>
<path fill-rule="evenodd" clip-rule="evenodd" d="M122.032 18L135.309 27.8953V32.2521H129.408V30.4519L122.032 24.9545L114.657 30.4519V32.2521H126.458V37.6395H114.657V39.4397L122.032 44.9371L129.408 39.4397V37.6395H135.309V41.9964L122.032 51.8916L108.756 41.9964V27.8953L122.032 18Z" fill="#5B5B5B"/>
<path fill-rule="evenodd" clip-rule="evenodd" d="M122.032 18L135.309 27.8953V32.2521H129.408V30.4519L122.032 24.9545L114.657 30.4519V32.2521H126.458V37.6395H114.657V39.4397L122.032 44.9371L129.408 39.4397V37.6395H135.309V41.9964L122.032 51.8916L108.756 41.9964V27.8953L122.032 18Z" fill="white"/>
<path fill-rule="evenodd" clip-rule="evenodd" d="M48.2762 18L61.5523 27.8953V32.2521H55.6518V30.4519L48.2762 24.9545L40.9005 30.4519V39.4397L48.2762 44.9371L55.6518 39.4397V38.9864H48.2762V33.599H61.5523V41.9964L48.2762 51.8916L35 41.9964V27.8953L48.2762 18Z" fill="#5B5B5B"/>
<path fill-rule="evenodd" clip-rule="evenodd" d="M48.2762 18L61.5523 27.8953V32.2521H55.6518V30.4519L48.2762 24.9545L40.9005 30.4519V39.4397L48.2762 44.9371L55.6518 39.4397V38.9864H48.2762V33.599H61.5523V41.9964L48.2762 51.8916L35 41.9964V27.8953L48.2762 18Z" fill="white"/>
<path fill-rule="evenodd" clip-rule="evenodd" d="M70.4031 38.7552L66.2308 34.9457L70.4031 31.1362L74.5753 34.9457L70.4031 38.7552Z" fill="#5B5B5B"/>
<path fill-rule="evenodd" clip-rule="evenodd" d="M70.4031 38.7552L66.2308 34.9457L70.4031 31.1362L74.5753 34.9457L70.4031 38.7552Z" fill="white"/>
<path fill-rule="evenodd" clip-rule="evenodd" d="M150.06 26.0847V26.0751L150.052 26.06L150.06 26.0539L150.06 19.0994L138.259 27.8951V32.2519H144.159L144.159 30.4518L145.358 29.5582L148.25 34.9457L145.358 40.3332L144.159 39.4396L144.159 37.6394H138.259V41.9963L150.06 50.7921L150.06 43.8375L150.052 43.8314L151.535 41.0676L153.018 43.8314L153.01 43.8375V50.792L164.811 41.9963V37.6394H158.911V32.252H164.811V27.8951L153.01 19.0994L153.01 26.0539L153.018 26.06L153.01 26.0752V26.0847H153.005L151.535 28.8239L150.065 26.0847H150.06ZM157.712 29.5582L154.82 34.9457L157.712 40.3332L158.911 39.4396V30.4518L157.712 29.5582Z" fill="#5B5B5B"/>
<path fill-rule="evenodd" clip-rule="evenodd" d="M150.06 26.0847V26.0751L150.052 26.06L150.06 26.0539L150.06 19.0994L138.259 27.8951V32.2519H144.159L144.159 30.4518L145.358 29.5582L148.25 34.9457L145.358 40.3332L144.159 39.4396L144.159 37.6394H138.259V41.9963L150.06 50.7921L150.06 43.8375L150.052 43.8314L151.535 41.0676L153.018 43.8314L153.01 43.8375V50.792L164.811 41.9963V37.6394H158.911V32.252H164.811V27.8951L153.01 19.0994L153.01 26.0539L153.018 26.06L153.01 26.0752V26.0847H153.005L151.535 28.8239L150.065 26.0847H150.06ZM157.712 29.5582L154.82 34.9457L157.712 40.3332L158.911 39.4396V30.4518L157.712 29.5582Z" fill="white"/>
</svg>
