<svg width="269" height="70" viewBox="0 0 269 70" fill="none" xmlns="http://www.w3.org/2000/svg">
<path fill-rule="evenodd" clip-rule="evenodd" d="M208.73 12.8513C209.628 18.0332 214.155 20.1387 214.155 20.1387C214.155 20.1387 218.724 21.07 226.925 19.5765C242.58 29.9684 233.229 41.2976 233.229 41.2976L232.539 37.7104L227.753 40.9778L227.451 37.7104L221.924 40.9778L221.359 36.6362L214.155 40.3813L215.613 34.1993L205.337 36.6362L210.092 31.0076L190.712 20.1387C194.333 17.3677 203.001 14.3212 208.73 12.8513ZM202.524 23.1943C202.524 23.1943 205.271 17.3677 207.695 17.3677C207.817 17.988 210.089 22.2315 212.377 21.936C212.327 21.8024 209.136 26.8253 206.372 25.5638C204.865 24.8764 202.524 23.1943 202.524 23.1943Z" fill="url(#paint0_linear_165_363)"/>
<path d="M172 11L194.333 28.3827L177.439 55.8538L206.372 45.1333L205.337 59L217.103 46.0232L216.235 53.8329L230.342 44.2736V41.7446L225.785 44.6989L225.133 41.7446L220.26 44.2736L219.816 40.9778L210.092 44.6989L211.4 37.7104L196.878 41.7446L206.643 31.3871L172 11Z" fill="url(#paint1_linear_165_363)"/>
<path d="M97.9056 32.2521V30.4519L90.53 24.9545L83.1543 30.4519V39.4397L86.8421 42.1884L95.2881 48.3452L90.53 51.8916L77.2538 41.9964V27.8953L90.53 18L103.806 27.8953V37.6395H95.9269L103.046 42.5629L98.2608 46.1295L89.8036 40.1632L86.1046 37.6051V32.2521H97.9056Z" fill="#5B5B5B"/>
<path fill-rule="evenodd" clip-rule="evenodd" d="M120.032 18L133.309 27.8953V32.2521H127.408V30.4519L120.032 24.9545L112.657 30.4519V32.2521H124.458V37.6395H112.657V39.4397L120.032 44.9371L127.408 39.4397V37.6395H133.309V41.9964L120.032 51.8916L106.756 41.9964V27.8953L120.032 18Z" fill="#5B5B5B"/>
<path fill-rule="evenodd" clip-rule="evenodd" d="M46.2761 18L59.5523 27.8953V32.2521H53.6518V30.4519L46.2761 24.9545L38.9005 30.4519V39.4397L46.2761 44.9371L53.6518 39.4397V38.9864H46.2761V33.599H59.5523V41.9964L46.2761 51.8916L33 41.9964V27.8953L46.2761 18Z" fill="#5B5B5B"/>
<path fill-rule="evenodd" clip-rule="evenodd" d="M68.403 38.7552L64.2308 34.9457L68.403 31.1362L72.5753 34.9457L68.403 38.7552Z" fill="#5B5B5B"/>
<path fill-rule="evenodd" clip-rule="evenodd" d="M148.06 26.0847V26.0751L148.052 26.06L148.06 26.0539L148.06 19.0994L136.259 27.8951V32.2519H142.159L142.159 30.4518L143.358 29.5582L146.25 34.9457L143.358 40.3332L142.159 39.4396L142.159 37.6394H136.259V41.9963L148.06 50.7921L148.06 43.8375L148.052 43.8314L149.535 41.0676L151.018 43.8314L151.01 43.8375V50.792L162.811 41.9963V37.6394H156.911V32.252H162.811V27.8951L151.01 19.0994L151.01 26.0539L151.018 26.06L151.01 26.0752V26.0847H151.005L149.535 28.8239L148.065 26.0847H148.06ZM155.712 29.5582L152.82 34.9457L155.712 40.3332L156.911 39.4396V30.4518L155.712 29.5582Z" fill="#5B5B5B"/>
<defs>
<linearGradient id="paint0_linear_165_363" x1="239.497" y1="13.1963" x2="185.471" y2="56.7083" gradientUnits="userSpaceOnUse">
<stop offset="0.350615" stop-color="#1299B7"/>
<stop offset="1" stop-color="#DE00AD"/>
</linearGradient>
<linearGradient id="paint1_linear_165_363" x1="239.497" y1="13.1963" x2="185.471" y2="56.7083" gradientUnits="userSpaceOnUse">
<stop offset="0.350615" stop-color="#1299B7"/>
<stop offset="1" stop-color="#DE00AD"/>
</linearGradient>
</defs>
</svg>
